<svg data-v-423bf9ae="" xmlns="http://www.w3.org/2000/svg" viewBox="0 0 NaN 98" class="iconLeft"><!----><!----><!----><g data-v-423bf9ae="" id="b5f892d5-dcbd-4e26-af96-3263eb5d4ae9" fill="black" transform="matrix(Infinity,0,0,Infinity,0,48.984500885009766)"><path d=""></path></g><!----><g data-v-423bf9ae="" id="437de858-5599-43af-ad92-1433b1e24084" transform="matrix(1.0433333502875435,0,0,1.0433333502875435,-8.166667597028983,-3.114501642862976)" stroke="none" fill="black"><path d="M92 30.9c0-4.7-3.8-8.6-8.6-8.6-2.7 0-5.1 1.3-6.7 3.3L57.9 14.8c.4-1 .6-2 .6-3.2 0-4.7-3.8-8.6-8.6-8.6s-8.6 3.8-8.6 8.6c0 1.1.2 2.2.6 3.1l-18.6 11c-1.6-2-4-3.3-6.7-3.3-4.7 0-8.6 3.8-8.6 8.6 0 4.2 3.1 7.7 7.1 8.4v21.3c-4 .6-7.1 4.1-7.1 8.4 0 4.7 3.8 8.6 8.6 8.6 2.7 0 5.1-1.2 6.6-3.2L42 85.3c-.4.9-.6 2-.6 3 0 4.7 3.8 8.6 8.6 8.6s8.6-3.8 8.6-8.6c0-1.1-.2-2.1-.6-3l18.8-10.9c1.6 1.9 4 3.2 6.6 3.2 4.7 0 8.6-3.8 8.6-8.6 0-4.3-3.2-7.9-7.3-8.5V39.3c4.1-.5 7.3-4.1 7.3-8.4zm-8.6-6.1c3.4 0 6.1 2.7 6.1 6.1S86.8 37 83.4 37c-3.4 0-6.1-2.7-6.1-6.1s2.7-6.1 6.1-6.1zM50 5.5c3.4 0 6.1 2.7 6.1 6.1 0 1-.3 2-.7 2.9l-.1.1v.1c-1.1 1.8-3 3-5.2 3-3.4 0-6.1-2.7-6.1-6.1s2.6-6.1 6-6.1zM10.5 30.9c0-3.4 2.7-6.1 6.1-6.1 3.4 0 6.1 2.7 6.1 6.1S20 37 16.6 37c-3.4 0-6.1-2.7-6.1-6.1zm6.1 44.3c-3.4 0-6.1-2.7-6.1-6.1 0-3.4 2.7-6.1 6.1-6.1 3.4 0 6.1 2.7 6.1 6.1 0 3.3-2.7 6.1-6.1 6.1zM50 94.5c-3.4 0-6.1-2.7-6.1-6.1 0-3.4 2.7-6.1 6.1-6.1 3.4 0 6.1 2.7 6.1 6.1 0 3.3-2.7 6.1-6.1 6.1zm6.8-11.3c-1.6-2-4-3.4-6.8-3.4s-5.2 1.3-6.8 3.4L24.5 72.4c.4-1 .7-2.1.7-3.3 0-4.4-3.3-8-7.5-8.5V39.4c4.2-.5 7.5-4.1 7.5-8.5 0-1.1-.2-2.2-.6-3.2l18.7-10.9c1.6 2 4 3.3 6.7 3.3s5.1-1.3 6.7-3.3l18.8 10.9c-.4 1-.6 2-.6 3.2 0 4.3 3.2 7.9 7.3 8.5v21.2c-4.1.6-7.3 4.2-7.3 8.5 0 1.2.2 2.3.7 3.3L56.8 83.2zm32.7-14.1c0 3.4-2.7 6.1-6.1 6.1-3.4 0-6.1-2.7-6.1-6.1 0-3.4 2.7-6.1 6.1-6.1 3.4 0 6.1 2.7 6.1 6.1zm-20-4.3c.5.4.6 1.2.2 1.7-.2.3-.6.4-.9.4-.3 0-.5-.1-.8-.3-5.1-4.2-10.5-6.9-11.6-7.4-.6-.3-.9-.8-.9-1.4v-8c0-.4.2-.8.5-1 .7-.5 1.1-1.3 1.1-2.1v-8.3c0-3.5-2.8-6.3-6.3-6.3H49c-3.5 0-6.3 2.8-6.3 6.3v8.3c0 .8.4 1.6 1.1 2.1.3.2.5.6.5 1v8c0 .6-.3 1.2-.9 1.4-1 .5-6.5 3.3-11.6 7.4-.5.4-1.3.4-1.7-.2-.4-.5-.4-1.3.2-1.7 4.7-3.9 9.8-6.6 11.6-7.5v-6.9c-1.1-.9-1.7-2.3-1.7-3.7v-8.3c0-4.8 3.9-8.7 8.7-8.7h1.8c4.8 0 8.7 3.9 8.7 8.7v8.3c0 1.4-.6 2.8-1.7 3.7v6.9c2 1 7.1 3.8 11.8 7.6z"></path></g><!----></svg>